<svg width="14" height="17" viewBox="0 0 14 17" fill="none" xmlns="http://www.w3.org/2000/svg">
<path d="M7 8.07001C7.48125 8.07001 7.89337 7.91321 8.23637 7.59961C8.57938 7.28601 8.75058 6.90947 8.75 6.47001C8.75 6.03001 8.5785 5.65321 8.2355 5.33961C7.8925 5.02601 7.48067 4.86947 7 4.87001C6.51875 4.87001 6.10663 5.02681 5.76363 5.34041C5.42062 5.65401 5.24942 6.03054 5.25 6.47001C5.25 6.91001 5.4215 7.28681 5.7645 7.60041C6.1075 7.91401 6.51933 8.07054 7 8.07001ZM7 16.07C4.65208 14.2433 2.89858 12.5468 1.7395 10.9804C0.580417 9.41401 0.000583333 7.96387 0 6.63001C0 4.63001 0.703792 3.03667 2.11138 1.85001C3.51896 0.663341 5.1485 0.0700073 7 0.0700073C8.85208 0.0700073 10.4819 0.663341 11.8895 1.85001C13.2971 3.03667 14.0006 4.63001 14 6.63001C14 7.96334 13.4202 9.41347 12.2605 10.9804C11.1008 12.5473 9.34733 14.2439 7 16.07Z" fill="white"/>
</svg>
