<svg width="45" height="65" fill="none" xmlns="http://www.w3.org/2000/svg"><path d="M4.332 10.016V0h1.352v10.016H4.332zM0 5.681V4.336h10.016V5.68H0zM21.332 10.016V0h1.352v10.016h-1.352zM17 5.681V4.336h10.016V5.68H17zM38.332 10.016V0h1.352v10.016h-1.352zM34 5.681V4.336h10.016V5.68H34zM4.332 28.016V18h1.352v10.016H4.332zM0 23.681v-1.345h10.016v1.345H0zM21.332 28.016V18h1.352v10.016h-1.352zM17 23.681v-1.345h10.016v1.345H17zM38.332 28.016V18h1.352v10.016h-1.352zM34 23.681v-1.345h10.016v1.345H34zM4.332 46.016V36h1.352v10.016H4.332zM0 41.681v-1.345h10.016v1.345H0zM21.332 46.016V36h1.352v10.016h-1.352zM17 41.681v-1.345h10.016v1.345H17zM38.332 46.016V36h1.352v10.016h-1.352zM34 41.681v-1.345h10.016v1.345H34zM4.332 64.016V54h1.352v10.016H4.332zM0 59.681v-1.345h10.016v1.345H0zM21.332 64.016V54h1.352v10.016h-1.352zM17 59.681v-1.345h10.016v1.345H17zM38.332 64.016V54h1.352v10.016h-1.352zM34 59.681v-1.345h10.016v1.345H34z" fill="#fff"/></svg>