<svg width="32" height="32" viewBox="0 0 32 32" fill="none" xmlns="http://www.w3.org/2000/svg">
<path d="M23.3844 0H8.61514C6.33095 0.00244342 4.14101 0.910918 2.52584 2.52609C0.910674 4.14126 0.00219928 6.33119 -0.000244141 8.61539V23.3846C0.00219928 25.6688 0.910674 27.8587 2.52584 29.4739C4.14101 31.0891 6.33095 31.9976 8.61514 32H23.3844C25.6686 31.9976 27.8585 31.0891 29.4737 29.4739C31.0888 27.8587 31.9973 25.6688 31.9998 23.3846V8.61539C31.9973 6.33119 31.0888 4.14126 29.4737 2.52609C27.8585 0.910918 25.6686 0.00244342 23.3844 0ZM15.9998 23.3846C14.5392 23.3846 13.1115 22.9515 11.8971 22.1401C10.6827 21.3287 9.73619 20.1753 9.17726 18.826C8.61834 17.4766 8.4721 15.9918 8.75703 14.5593C9.04197 13.1269 9.74529 11.811 10.778 10.7783C11.8108 9.74553 13.1266 9.04222 14.5591 8.75728C15.9916 8.47234 17.4764 8.61858 18.8257 9.17751C20.1751 9.73643 21.3284 10.6829 22.1398 11.8973C22.9513 13.1117 23.3844 14.5395 23.3844 16C23.3823 17.9579 22.6037 19.835 21.2192 21.2195C19.8348 22.6039 17.9577 23.3826 15.9998 23.3846ZM25.2305 8.61539C24.8654 8.61539 24.5085 8.50711 24.2049 8.30425C23.9013 8.10139 23.6646 7.81306 23.5249 7.47572C23.3852 7.13838 23.3486 6.76718 23.4198 6.40906C23.4911 6.05094 23.6669 5.72199 23.9251 5.4638C24.1833 5.20561 24.5122 5.02978 24.8704 4.95855C25.2285 4.88732 25.5997 4.92388 25.937 5.06361C26.2744 5.20334 26.5627 5.43996 26.7655 5.74356C26.9684 6.04716 27.0767 6.4041 27.0767 6.76923C27.0767 7.25886 26.8822 7.72844 26.536 8.07466C26.1897 8.42088 25.7202 8.61539 25.2305 8.61539ZM20.9228 16C20.9228 16.9737 20.6341 17.9255 20.0931 18.7351C19.5522 19.5447 18.7833 20.1757 17.8837 20.5483C16.9842 20.9209 15.9943 21.0184 15.0393 20.8285C14.0843 20.6385 13.2071 20.1696 12.5186 19.4811C11.8301 18.7926 11.3612 17.9154 11.1713 16.9604C10.9813 16.0055 11.0788 15.0156 11.4514 14.116C11.824 13.2164 12.455 12.4476 13.2646 11.9066C14.0742 11.3657 15.0261 11.0769 15.9998 11.0769C17.3054 11.0769 18.5576 11.5956 19.4809 12.5189C20.4042 13.4421 20.9228 14.6943 20.9228 16Z" fill="white"/>
</svg>
