<svg width="250" height="37" viewBox="0 0 250 37" fill="none" xmlns="http://www.w3.org/2000/svg">
<path d="M24.0187 27.626C23.6668 28.7697 23.4028 30.0894 23.4028 30.9692C23.4028 34.4005 26.0423 36.6 31.585 36.6C38.8874 36.6 41.7028 33.9606 43.2865 28.3298L48.0374 12.0534H41.2629L36.512 28.1539C35.9841 29.9135 34.9283 30.7053 32.8168 30.7053C30.8812 30.7053 30.1774 29.7375 30.6173 28.0659L35.3682 11.9654H28.5937L24.0187 27.626Z" fill="white"/>
<path d="M115.431 36.2481H131.443L133.115 30.5293H123.877L124.933 26.8341H133.115L134.699 21.2913H126.604L127.748 17.5082H136.986L138.57 12.0534H122.557L115.431 36.2481Z" fill="white"/>
<path d="M220.304 11.7014C213.705 11.7014 208.778 12.4933 205.523 24.7226C204.995 26.8341 204.643 28.6817 204.643 30.2654C204.643 34.1365 206.755 36.6 213.441 36.6C215.113 36.6 217.313 36.3361 218.808 35.8082L220.48 30.1774C220.48 30.1774 218.72 30.6173 215.905 30.6173C212.826 30.6173 212.034 29.6495 212.034 28.0659C212.034 27.0981 212.298 26.0423 212.65 24.8106C214.321 18.3 216.169 17.5962 219.512 17.5962C222.327 17.5962 223.911 18.0361 223.911 18.0361L225.671 12.2293C224.527 12.0534 221.976 11.7014 220.304 11.7014Z" fill="white"/>
<path d="M1.1438 36.0721C2.11159 36.3361 4.48707 36.6 6.42265 36.6C15.0448 36.6 18.564 34.2245 20.4996 27.626L25.1625 12.0534H18.388L14.3409 25.9543C14.077 26.3942 13.813 27.274 13.4611 27.9779C12.3174 30.0014 10.1178 30.5293 7.5664 30.5293C5.01495 30.5293 2.81543 30.1774 2.81543 30.1774L1.1438 36.0721Z" fill="white"/>
<path d="M169.715 36.2481H176.401L178.777 28.1539H180.624L182.648 36.2481H189.95L187.223 27.0101C189.247 26.3942 191.622 25.6904 193.206 20.3236C193.646 18.9159 193.822 17.4202 193.822 16.6284C193.822 13.725 192.062 11.9654 187.751 11.9654H176.841L169.715 36.2481ZM180.273 23.051L181.856 17.5962H184.936C186.079 17.5962 186.695 18.212 186.695 19.1798C186.695 21.4673 185.551 23.051 183.264 23.051H180.273Z" fill="white"/>
<path d="M91.324 22.2591H82.262L80.9423 26.7462H83.8456L82.7019 30.6173C82.7019 30.6173 81.7341 30.7933 80.5904 30.7933C78.1269 30.7933 77.775 29.7375 77.775 28.1539C77.775 27.1861 78.0389 26.0423 78.3029 24.8106C79.9745 18.3 81.9101 17.5082 85.2533 17.5082C88.7726 17.5082 91.5 18.212 91.5 18.212L93.2596 12.5813C92.2918 12.2293 89.2125 11.7014 86.1331 11.7014C79.5346 11.7014 74.6077 12.4053 71.3524 24.6346C70.8245 26.7462 70.5605 28.5058 70.5605 30.1774C70.5605 34.0486 72.8481 36.6 79.4466 36.6C82.6139 36.6 85.9572 36.0721 87.5408 35.5442L91.324 22.2591Z" fill="white"/>
<path d="M142.177 12.0534H148.952L141.825 36.2481H135.051L142.177 12.0534Z" fill="white"/>
<path d="M51.9966 12.0534H57.7154L61.2346 24.9865H61.3226C61.3226 24.9865 61.8505 22.875 62.3784 21.1154L65.0178 12.1413H71.7043L64.5779 36.3361H58.8591L55.2519 23.5788H55.164C55.164 23.5788 54.6361 25.5144 54.1082 27.538L51.4688 36.3361H44.7822L51.9966 12.0534Z" fill="white"/>
<path d="M152.999 12.0534H158.717L162.237 24.9865H162.325C162.325 24.9865 162.852 22.875 163.38 21.1154L166.02 12.1413H172.706L165.58 36.3361H159.861L156.254 23.5788H156.166C156.166 23.5788 155.638 25.5144 155.11 27.538L152.471 36.3361H145.784L152.999 12.0534Z" fill="white"/>
<path d="M199.101 12.0534H205.875L198.749 36.2481H191.886L199.101 12.0534Z" fill="white"/>
<path d="M98.1866 12.0534H104.961L102.146 21.4673H108.744L111.56 12.0534H118.334L111.208 36.2481H104.433L107.161 27.0101H100.474L97.7467 36.2481H90.9722L98.1866 12.0534Z" fill="white"/>
<path d="M229.19 12.0534H235.964L233.149 21.4673H239.836L242.651 12.0534H249.425L242.211 36.2481H235.437L238.164 27.0101H231.565L228.838 36.2481H221.975L229.19 12.0534Z" fill="white"/>
<path d="M26.0423 9.94183L15.7486 0L0 9.94183H8.88606L3.51923 27.9779C3.51923 27.9779 5.27885 28.2418 7.74231 28.2418C9.67789 28.2418 10.8216 27.626 11.3495 26.7462C11.6135 26.2183 11.7014 26.0423 11.9654 25.1625L16.5404 9.85385H26.0423V9.94183Z" fill="white"/>
</svg>
