<svg width="32" height="32" viewBox="0 0 32 32" fill="none" xmlns="http://www.w3.org/2000/svg">
<path d="M29.6317 31.9998H2.35915C1.74026 32.0057 1.1443 31.7659 0.702022 31.3329C0.259748 30.9 0.00727751 30.3092 0 29.6904L0 2.30854C0.00756739 1.68986 0.260166 1.09942 0.702408 0.66669C1.14465 0.233962 1.74044 -0.0057363 2.35915 0.0001526H29.6317C30.2516 -0.00692016 30.849 0.232117 31.2929 0.664848C31.7368 1.09758 31.991 1.68868 31.9997 2.30854V29.6904C31.9913 30.3104 31.7372 30.9018 31.2933 31.3348C30.8493 31.7677 30.2518 32.0069 29.6317 31.9998ZM20.0561 15.7926C22.5234 15.7926 22.5234 18.1318 22.5234 19.84V27.2672H27.2682V18.8921C27.4113 17.1016 27.0497 15.3068 26.2243 13.7115C25.3349 12.3024 23.8144 11.6149 21.5744 11.6149C20.6733 11.5845 19.7806 11.7974 18.9903 12.2314C18.2 12.6654 17.5413 13.3044 17.0834 14.0811H17.0183V11.9967H12.4688V27.2672H17.2136V19.7142C17.2136 17.7743 17.5447 15.7926 20.0561 15.7926ZM4.74478 11.9967V27.2672H9.48956V11.9967H4.74478ZM7.12269 4.40508C6.57786 4.40377 6.04488 4.56414 5.59125 4.86591C5.13761 5.16767 4.78371 5.59725 4.57436 6.10026C4.365 6.60326 4.3096 7.15708 4.41517 7.69159C4.52074 8.2261 4.78253 8.71727 5.1674 9.10291C5.55227 9.48855 6.04291 9.75133 6.57721 9.85797C7.11151 9.96461 7.66543 9.91032 8.16886 9.70198C8.67228 9.49363 9.10257 9.14059 9.40524 8.68756C9.70792 8.23454 9.86936 7.70189 9.86915 7.15705C9.8674 6.42791 9.57705 5.72912 9.06157 5.21343C8.54609 4.69774 7.84742 4.40712 7.11828 4.40508H7.12269Z" fill="white"/>
</svg>
