<svg width="250" height="36" viewBox="0 0 250 36" fill="none" xmlns="http://www.w3.org/2000/svg">
<g clip-path="url(#clip0_256_2)">
<mask id="mask0_256_2" style="mask-type:luminance" maskUnits="userSpaceOnUse" x="0" y="0" width="250" height="36">
<path d="M250 0H0V35.5592H250V0Z" fill="white"/>
</mask>
<g mask="url(#mask0_256_2)">
<path d="M23.3148 26.846C22.981 27.9037 22.7887 29.0009 22.7429 30.109C22.7429 33.4733 25.3335 35.5584 30.6825 35.5584C37.7842 35.5584 40.4723 32.9686 42.0906 27.4844L46.7301 11.674H40.1353L35.4935 27.3476C34.9881 29.0966 33.9825 29.8408 31.8943 29.8408C29.9753 29.8408 29.3029 28.8987 29.7751 27.3174L34.3837 11.6748H27.7889L23.3148 26.846Z" fill="white"/>
<path d="M112.164 35.2222H127.707L129.389 29.6716H120.373L121.416 26.1056H129.324L130.939 20.6902H123.03L124.106 17.0562H133.123L134.704 11.674H119.124L112.164 35.2222Z" fill="white"/>
<path d="M214.065 11.337C207.644 11.337 202.863 12.0767 199.701 23.9539C199.181 25.7149 198.887 27.5349 198.826 29.3701C198.826 33.1718 200.845 35.5592 207.338 35.5592C209.114 35.5729 210.883 35.3237 212.586 34.8195L214.201 29.3701C212.742 29.6833 211.252 29.83 209.76 29.8075C206.766 29.8075 205.958 28.8647 205.958 27.3506C206.026 26.2673 206.218 25.1954 206.53 24.1556C208.145 17.8638 209.93 17.1574 213.192 17.1574C214.64 17.127 216.086 17.2736 217.498 17.5941L219.181 11.9769C217.506 11.5704 215.789 11.3557 214.065 11.337Z" fill="white"/>
<path d="M1.07654 35.0538C2.76086 35.387 4.47355 35.556 6.19053 35.5585C14.6008 35.5585 17.9643 33.2716 19.8832 26.8453L24.3913 11.6733H17.7965L13.8271 25.1968C13.6463 25.8813 13.3983 26.5464 13.0867 27.1822C12.0102 29.1337 9.85773 29.6708 7.3676 29.6708C5.83741 29.6662 4.30903 29.5653 2.79153 29.3686L1.07654 35.0538Z" fill="white"/>
<path d="M164.915 35.2222H171.441L173.766 27.3166H175.55L177.502 35.2222H184.566L181.942 26.2741C183.926 25.7021 186.181 24.995 187.729 19.7473C188.068 18.5876 188.26 17.3898 188.3 16.1821C188.3 13.3232 186.618 11.6747 182.413 11.6747H171.877L164.915 35.2222ZM175.211 22.3719L176.757 17.0562H179.717C180.861 17.0562 181.434 17.6273 181.434 18.5672C181.434 20.7544 180.357 22.3696 178.103 22.3696L175.211 22.3719Z" fill="white"/>
<path d="M88.7812 21.6655H79.9676L78.6228 26.0051H81.4144L80.3045 29.7388C79.6371 29.8478 78.9621 29.9042 78.2858 29.9073C75.8969 29.9073 75.5267 28.8639 75.5267 27.3499C75.5819 26.256 75.7627 25.172 76.0654 24.1194C77.6807 17.8291 79.5641 17.0222 82.8279 17.0222C84.8762 17.0223 86.9183 17.2481 88.9172 17.6954L90.6322 12.2112C88.3675 11.6341 86.0399 11.3402 83.7028 11.3363C77.2765 11.3363 72.4654 12.0427 69.3037 23.9192C68.8125 25.6719 68.5524 27.4813 68.53 29.3014C68.53 33.1023 70.7497 35.5584 77.1427 35.5584C79.7893 35.5817 82.4266 35.2424 84.9811 34.5498L88.7812 21.6655Z" fill="white"/>
<path d="M138.169 11.674H144.761L137.797 35.2222H131.203L138.169 11.674Z" fill="white"/>
<path d="M50.4978 11.674H56.0129L59.4467 24.2221H59.5464C59.5464 24.2221 60.0851 22.1694 60.5898 20.4197L63.1804 11.674H69.6732L62.7105 35.2222H57.1953L53.6928 22.8426H53.5931C53.5931 22.8426 53.1209 24.7593 52.549 26.7115L50.0264 35.2222H43.5336L50.4978 11.674Z" fill="white"/>
<path d="M148.665 11.674H154.18L157.616 24.2221H157.716C157.716 24.2221 158.256 22.1694 158.76 20.4197L161.35 11.674H167.847L160.882 35.2222H155.367L151.868 22.8426H151.768C151.768 22.8426 151.297 24.7593 150.724 26.7115L148.201 35.2222H141.708L148.665 11.674Z" fill="white"/>
<path d="M193.477 11.674H200.07L193.105 35.2222H186.513L193.477 11.674Z" fill="white"/>
<path d="M95.376 11.674H101.97L99.245 20.8231H105.704L108.43 11.674H115.024L108.059 35.2222H101.466L104.121 26.2408H97.6614L95.0043 35.2222H88.4095L95.376 11.674Z" fill="white"/>
<path d="M222.712 11.674H229.307L226.581 20.8231H233.04L235.766 11.674H242.36L235.395 35.2222H228.802L231.458 26.2408H225L222.343 35.2222H215.748L222.712 11.674Z" fill="white"/>
<path d="M25.3327 9.65531L15.2732 0L0 9.65531H8.64596L3.433 27.2162C4.80448 27.4007 6.18705 27.4906 7.57088 27.4851C9.4551 27.4851 10.5317 26.9132 11.0364 26.0384C11.3107 25.567 11.5143 25.0579 11.6408 24.5274L16.1141 9.65531H25.3327Z" fill="white"/>
<path d="M247.323 11.6393C247.866 11.6248 248.4 11.7726 248.858 12.0636C249.316 12.3546 249.677 12.7756 249.894 13.2728C250.111 13.77 250.176 14.3207 250.078 14.8545C249.981 15.3883 249.726 15.8808 249.347 16.2692C248.968 16.6575 248.482 16.924 247.951 17.0344C247.42 17.1449 246.867 17.0943 246.365 16.8892C245.863 16.6841 245.433 16.3337 245.131 15.883C244.829 15.4323 244.668 14.9017 244.669 14.3591C244.661 13.6467 244.936 12.9603 245.434 12.4504C245.931 11.9405 246.611 11.6488 247.323 11.6393ZM247.323 16.4881C247.597 16.4848 247.867 16.4269 248.118 16.3175C248.369 16.2082 248.595 16.0498 248.784 15.8516C248.972 15.6534 249.12 15.4194 249.216 15.1634C249.313 14.9075 249.358 14.6348 249.347 14.3613C249.361 14.0889 249.32 13.8165 249.225 13.5606C249.13 13.3048 248.985 13.0709 248.797 12.8731C248.609 12.6753 248.383 12.5178 248.132 12.4102C247.882 12.3026 247.612 12.2471 247.339 12.2471C247.066 12.2471 246.796 12.3026 246.545 12.4102C246.295 12.5178 246.069 12.6753 245.881 12.8731C245.693 13.0709 245.547 13.3048 245.453 13.5606C245.358 13.8165 245.316 14.0889 245.33 14.3613C245.319 14.6325 245.361 14.9033 245.456 15.1579C245.55 15.4124 245.694 15.6455 245.88 15.8436C246.065 16.0416 246.289 16.2007 246.537 16.3113C246.784 16.422 247.052 16.4821 247.323 16.4881ZM246.395 12.9894H247.528C247.645 12.9807 247.762 12.9969 247.872 13.0368C247.982 13.0767 248.083 13.1395 248.167 13.221C248.251 13.3024 248.317 13.4008 248.361 13.5096C248.404 13.6183 248.424 13.7351 248.42 13.8521C248.426 14.0062 248.383 14.1583 248.296 14.2857C248.209 14.413 248.083 14.5087 247.937 14.5585V14.5729C247.975 14.621 248.008 14.6735 248.033 14.7293L248.546 15.7114H247.848L247.386 14.7074H247.029V15.7092H246.398L246.395 12.9894ZM247.377 14.2609C247.431 14.2644 247.485 14.2562 247.535 14.2367C247.586 14.2172 247.631 14.187 247.669 14.1481C247.707 14.1091 247.735 14.0625 247.753 14.0114C247.771 13.9603 247.777 13.9059 247.771 13.8521C247.778 13.7991 247.772 13.7452 247.755 13.6946C247.738 13.6439 247.71 13.5977 247.673 13.5592C247.636 13.5207 247.591 13.491 247.541 13.4721C247.491 13.4533 247.437 13.4458 247.384 13.4502H247.027V14.2609H247.377Z" fill="white"/>
</g>
</g>
<defs>
<clipPath id="clip0_256_2">
<rect width="250" height="35.5592" fill="white"/>
</clipPath>
</defs>
</svg>
