<svg width="175" height="54" viewBox="0 0 175 54" fill="none" xmlns="http://www.w3.org/2000/svg">
<path d="M9.15613 49.6856H4.576L3.36362 53.5063C3.00439 53.6042 2.51046 53.6042 2.15123 53.5063L6.28233 40.8196C6.68646 40.7216 7.13549 40.7216 7.49471 40.8196L11.6258 53.5063C11.2666 53.6042 10.7277 53.6042 10.3685 53.5063L9.15613 49.6856ZM6.86607 42.387L4.89033 48.5589H8.79691L6.86607 42.387Z" fill="white"/>
<path d="M24.3334 48.1671H21.6841C21.5943 47.8242 21.5943 47.4324 21.6841 47.0895H25.4111V53.1145C24.2885 53.5553 23.121 53.7512 21.9984 53.7512C19.3492 53.7512 17.6428 52.9185 17.6428 50.2244V44.0525C17.6428 41.4074 19.3043 40.5747 21.9984 40.5747C23.0761 40.5747 24.1089 40.6237 25.1866 40.8686C25.2764 41.2115 25.2764 41.6523 25.1866 41.9952C24.1538 41.7993 23.2557 41.7503 22.1332 41.7503C20.337 41.7503 18.8552 42.0442 18.8552 44.2485V50.0775C18.8552 52.2817 20.337 52.5756 22.1332 52.5756C23.0312 52.5756 23.7048 52.4777 24.3334 52.2817V48.1671Z" fill="white"/>
<path d="M31.6976 40.8196C32.0568 40.7216 32.5956 40.7216 32.9548 40.8196L36.2777 51.6939L39.5107 40.8196C39.8699 40.7216 40.3639 40.7216 40.7231 40.8196L36.8614 53.5063C36.4573 53.6042 36.0083 53.6042 35.649 53.5063L31.6976 40.8196Z" fill="white"/>
<path d="M61.9623 50.6652C61.9623 52.9184 60.5703 53.7511 58.2354 53.7511C57.2475 53.7511 56.1249 53.6532 55.137 53.4572C55.0472 53.1633 55.0472 52.6245 55.137 52.3306C56.2147 52.5266 57.1577 52.5755 58.2354 52.5755C59.6274 52.5755 60.7948 52.3306 60.7948 50.5182V49.6855C60.7948 48.4609 60.3009 48.314 59.3579 48.0201L57.2026 47.2364C55.7657 46.6975 55.0472 46.1097 55.0472 44.7382V43.6116C55.0472 41.3583 56.6188 40.5256 58.9538 40.5256C59.9866 40.5256 60.8397 40.5746 61.8725 40.8685C61.9623 41.1624 61.9623 41.6523 61.8725 41.9462C60.8397 41.7502 60.0315 41.7012 58.9987 41.7012C57.472 41.7012 56.2596 41.9951 56.2596 43.7096V44.4443C56.2596 45.5219 56.7535 45.7669 57.6965 46.1097L59.8519 46.8935C61.2888 47.4323 61.9623 47.8731 61.9623 49.4406V50.6652Z" fill="white"/>
<path d="M77.0049 50.2733C77.0049 52.9184 75.3435 53.8001 72.8289 53.8001C70.3143 53.8001 68.6529 52.9184 68.6529 50.2733V44.1014C68.6529 41.5052 70.3143 40.6235 72.8289 40.6235C75.3435 40.6235 77.0049 41.5052 77.0049 44.1014V50.2733ZM75.8374 44.1993C75.8374 41.9951 74.4903 41.7012 72.8738 41.7012C71.3022 41.7012 69.9102 41.9951 69.9102 44.1993V50.0773C69.9102 52.2326 71.3022 52.5265 72.8738 52.5265C74.4454 52.5265 75.8374 52.2326 75.8374 50.0773V44.1993Z" fill="white"/>
<path d="M84.4588 53.5551V40.8684C84.863 40.7704 85.312 40.7704 85.6712 40.8684V52.4285H90.7004C90.7902 52.7224 90.7902 53.2612 90.7004 53.5551H84.4588Z" fill="white"/>
<path d="M103.947 40.8196C104.261 40.7216 104.845 40.7216 105.114 40.8196V50.2244C105.114 52.8205 103.453 53.7512 100.983 53.7512C98.4687 53.7512 96.8521 52.8695 96.8521 50.2244V40.8196C97.2114 40.7216 97.7053 40.7216 98.0645 40.8196V50.0774C98.0645 52.2327 99.4116 52.5266 101.028 52.5266C102.6 52.5266 103.992 52.2327 103.992 50.0774V40.8196H103.947Z" fill="white"/>
<path d="M114.769 41.995H111.266C111.176 41.6521 111.176 41.1623 111.266 40.8684H119.483C119.573 41.2113 119.573 41.7011 119.483 41.995H115.981V53.5551C115.622 53.6531 115.173 53.6531 114.769 53.5551V41.995Z" fill="white"/>
<path d="M125.949 40.8196C126.354 40.7216 126.803 40.7216 127.162 40.8196V53.5063C126.803 53.6042 126.354 53.6042 125.949 53.5063V40.8196Z" fill="white"/>
<path d="M142.923 50.2733C142.923 52.9184 141.261 53.8001 138.747 53.8001C136.232 53.8001 134.571 52.9184 134.571 50.2733V44.1014C134.571 41.5052 136.232 40.6235 138.747 40.6235C141.261 40.6235 142.923 41.5052 142.923 44.1014V50.2733ZM141.71 44.1993C141.71 41.9951 140.363 41.7012 138.747 41.7012C137.175 41.7012 135.783 41.9951 135.783 44.1993V50.0773C135.783 52.2326 137.175 52.5265 138.747 52.5265C140.318 52.5265 141.71 52.2326 141.71 50.0773V44.1993Z" fill="white"/>
<path d="M151.544 42.8767V53.5551C151.14 53.6531 150.736 53.6531 150.332 53.5551V40.8684C150.736 40.7704 151.275 40.7704 151.724 40.8684L157.516 51.6937V40.8684C157.921 40.7704 158.325 40.7704 158.729 40.8684V53.5551C158.325 53.6531 157.696 53.6531 157.247 53.5551L151.544 42.8767Z" fill="white"/>
<path d="M172.649 50.6652C172.649 52.9184 171.257 53.7511 168.922 53.7511C167.934 53.7511 166.811 53.6532 165.823 53.4572C165.734 53.1633 165.734 52.6245 165.823 52.3306C166.901 52.5266 167.844 52.5755 168.922 52.5755C170.314 52.5755 171.481 52.3306 171.481 50.5182V49.6855C171.481 48.4609 170.987 48.314 170.044 48.0201L167.889 47.2364C166.452 46.6975 165.734 46.1097 165.734 44.7382V43.6116C165.734 41.3583 167.305 40.5256 169.64 40.5256C170.673 40.5256 171.526 40.5746 172.559 40.8685C172.649 41.1624 172.649 41.6523 172.559 41.9462C171.526 41.7502 170.718 41.7012 169.685 41.7012C168.158 41.7012 166.946 41.9951 166.946 43.7096V44.4443C166.946 45.5219 167.44 45.7669 168.383 46.1097L170.538 46.8935C171.975 47.4323 172.649 47.8731 172.649 49.4406V50.6652Z" fill="white"/>
<path d="M7.67432 22.7936V32.4433H0.400002V1.19189H13.6016C16.9693 1.19189 19.439 2.02461 21.0555 3.64106C22.672 5.25751 23.4803 7.80465 23.4803 11.2335V13.0949C23.4803 17.5034 22.0434 20.3444 19.1695 21.7159L24.4681 32.4923H16.5652L12.1646 22.8425H7.67432V22.7936ZM7.67432 16.5727H13.0178C15.1283 16.5727 16.2059 15.4461 16.2059 13.1928V10.8906C16.2059 8.63737 15.1283 7.51075 13.0178 7.51075H7.67432V16.5727Z" fill="white"/>
<path d="M43.1479 32.8842H38.7474C35.0204 32.8842 32.3711 32.0514 30.7546 30.337C29.1381 28.6226 28.3298 25.8795 28.3298 22.0588V11.6744C28.3298 7.85365 29.1381 5.0616 30.7546 3.34718C32.3711 1.63277 35.0204 0.800049 38.7474 0.800049H43.1479C46.8748 0.800049 49.5241 1.63277 51.1406 3.34718C52.7572 5.0616 53.5654 7.80467 53.5654 11.6744V22.0588C53.5654 25.8795 52.7572 28.6716 51.1406 30.337C49.5241 32.0514 46.8299 32.8842 43.1479 32.8842ZM39.5556 26.4183H42.3396C43.6867 26.4183 44.7195 26.0755 45.3481 25.3897C45.9768 24.7039 46.2911 23.5283 46.2911 21.9119V11.7723C46.2911 10.1559 45.9768 9.02925 45.3481 8.2945C44.7195 7.55975 43.6867 7.21687 42.3396 7.21687H39.5556C38.2085 7.21687 37.1757 7.55975 36.5471 8.2945C35.9185 9.02925 35.6041 10.1559 35.6041 11.7723V21.9119C35.6041 23.5283 35.9185 24.6549 36.5471 25.3897C37.1757 26.0755 38.2085 26.4183 39.5556 26.4183Z" fill="white"/>
<path d="M69.3714 26.4183H79.3848V32.1494C77.1845 32.6392 74.4903 32.8842 71.2573 32.8842H68.5631C64.8361 32.8842 62.1868 32.0514 60.5703 30.337C58.9538 28.6226 58.1456 25.8795 58.1456 22.0588V11.6744C58.1456 7.85365 58.9538 5.0616 60.5703 3.34718C62.1868 1.63277 64.8361 0.800049 68.5631 0.800049H71.0777C74.176 0.800049 76.9151 1.04497 79.2052 1.5348V7.26585H69.3714C68.0243 7.26585 66.9915 7.60874 66.3628 8.34349C65.7342 9.07824 65.4199 10.2049 65.4199 11.8213V21.9609C65.4199 23.5773 65.7342 24.7039 66.3628 25.4387C67.0364 26.0755 68.0243 26.4183 69.3714 26.4183Z" fill="white"/>
<path d="M91.1494 22.7936V32.4433H83.8751V1.19189H97.0766C100.444 1.19189 102.914 2.02461 104.531 3.64106C106.147 5.25751 106.955 7.80465 106.955 11.2335V13.0949C106.955 17.5034 105.518 20.3444 102.645 21.7159L107.943 32.4923H100.04L95.6397 22.8425H91.1494V22.7936ZM91.1494 16.5727H96.4929C98.6033 16.5727 99.681 15.4461 99.681 13.1928V10.8906C99.681 8.63737 98.6033 7.51075 96.4929 7.51075H91.1494V16.5727Z" fill="white"/>
<path d="M119.753 32.4923H112.478V1.19189H119.753V32.4923Z" fill="white"/>
<path d="M136.322 26.4183H146.335V32.1494C144.135 32.6392 141.441 32.8842 138.208 32.8842H135.514C131.787 32.8842 129.138 32.0514 127.521 30.337C125.905 28.6226 125.096 25.8795 125.096 22.0588V11.6744C125.096 7.85365 125.905 5.0616 127.521 3.34718C129.138 1.63277 131.787 0.800049 135.514 0.800049H138.028C141.127 0.800049 143.866 1.04497 146.156 1.5348V7.26585H136.367C135.02 7.26585 133.987 7.60874 133.358 8.34349C132.73 9.07824 132.415 10.2049 132.415 11.8213V21.9609C132.415 23.5773 132.73 24.7039 133.358 25.4387C133.942 26.0755 134.93 26.4183 136.322 26.4183Z" fill="white"/>
<path d="M158.1 32.4923H150.826V1.19189H158.1V13.6337H167.126V1.19189H174.4V32.4923H167.126V20.0995H158.1V32.4923Z" fill="white"/>
</svg>
