<svg width="77" height="53" fill="none" xmlns="http://www.w3.org/2000/svg"><path d="M64.122 5.144h11.894V6.75H64.122V5.144zM69.271 0h1.597v11.894H69.27V0zM64.122 25.33h11.894v1.606H64.122v-1.605zm5.149-5.143h1.597V32.08H69.27V20.187zM64.122 45.518h11.894v1.605H64.122v-1.605zm5.149-5.145h1.597v11.894H69.27V40.373zM42.748 5.144h11.894V6.75H42.748V5.144zM47.897 0h1.597v11.894h-1.597V0zM42.748 25.33h11.894v1.606H42.748v-1.605zm5.149-5.143h1.597V32.08h-1.597V20.187zM42.748 45.518h11.894v1.605H42.748v-1.605zm5.149-5.145h1.597v11.894h-1.597V40.373zM21.374 5.144h11.894V6.75H21.374V5.144zM26.522 0h1.597v11.894h-1.597V0zM21.374 25.33h11.893v1.606H21.374v-1.605zm5.148-5.143h1.597V32.08h-1.597V20.187zM21.374 45.518h11.893v1.605H21.374v-1.605zm5.148-5.145h1.597v11.894h-1.597V40.373zM0 5.144h11.894V6.75H0V5.144zM5.148 0h1.597v11.894H5.148V0zM0 25.33h11.894v1.606H0v-1.605zm5.148-5.143h1.598V32.08H5.148V20.187zM0 45.518h11.894v1.605H0v-1.605zm5.148-5.145h1.598v11.894H5.148V40.373z" fill="#fff"/></svg>