<svg width="142" height="52" viewBox="0 0 142 52" fill="none" xmlns="http://www.w3.org/2000/svg">
<path d="M142 0H0V52H142V0Z" fill="white"/>
<path d="M142 0H0V52H142V0Z" fill="white"/>
<mask id="mask0_53_83" style="mask-type:luminance" maskUnits="userSpaceOnUse" x="0" y="0" width="142" height="52">
<path d="M142 0H0V52H142V0Z" fill="white"/>
</mask>
<g mask="url(#mask0_53_83)">
<path d="M29.5274 18.161H31.6205C32.6861 18.0622 33.7553 18.3067 34.6792 18.86C34.9439 19.0767 35.1526 19.3568 35.2868 19.6757C35.421 19.9946 35.4767 20.3427 35.4488 20.6889C35.4385 21.286 35.2947 21.8728 35.0285 22.4041C34.7444 22.9933 34.3218 23.5007 33.7988 23.8806C33.21 24.2955 32.5109 24.514 31.7966 24.5067H29.5246L29.5274 18.161ZM23.1118 36.735H29.5274V27.8325H31.9386L37.468 36.735H45.7268L37.4908 26.3851C38.8326 25.8422 40.0145 24.9522 40.9215 23.8019C41.7738 22.7402 42.2513 21.4143 42.2762 20.0394C42.3024 18.8633 41.9108 17.7175 41.1742 16.8156C40.4589 15.9893 39.5441 15.3706 38.5217 15.0216C37.4837 14.6505 36.3919 14.4625 35.2926 14.4654H23.0977L23.1118 36.735Z" fill="#0A0A0A"/>
<path d="M53.5224 28.3883C53.5299 27.6482 53.6252 26.9118 53.8064 26.1954C53.9854 25.3921 54.3387 24.6406 54.8401 23.9967C55.0938 23.6791 55.4138 23.4241 55.7767 23.2507C56.1395 23.0773 56.5358 22.9899 56.9361 22.9949C57.3397 22.9893 57.7395 23.0765 58.1061 23.2498C58.4727 23.4232 58.7968 23.6783 59.0547 23.9967C59.5598 24.6393 59.9161 25.3911 60.097 26.1954C60.4661 27.6318 60.4661 29.1418 60.097 30.5783C59.9167 31.3828 59.5603 32.1347 59.0547 32.777C58.7972 33.0959 58.4731 33.3516 58.1065 33.5249C57.7398 33.6983 57.3398 33.785 56.9361 33.7788C56.5357 33.7844 56.1392 33.6973 55.7763 33.5239C55.4134 33.3504 55.0933 33.0951 54.8401 32.777C54.3382 32.1334 53.9848 31.3817 53.8064 30.5783C53.6253 29.8628 53.53 29.1274 53.5224 28.3883ZM56.9304 37.1046C59.2994 37.2083 61.6525 36.6614 63.7464 35.5203C65.1223 34.7134 66.2154 33.4825 66.8704 32.0024C67.3652 30.8646 67.621 29.6327 67.621 28.3868C67.621 27.141 67.3652 25.9091 66.8704 24.7713C66.2155 23.2904 65.1225 22.0585 63.7464 21.2505C61.6175 20.2096 59.2889 19.6695 56.9304 19.6695C54.5719 19.6695 52.2432 20.2096 50.1144 21.2505C48.7363 22.056 47.6426 23.2886 46.9904 24.7713C46.5012 25.9107 46.2485 27.142 46.2485 28.3868C46.2485 29.6317 46.5012 30.863 46.9904 32.0024C47.6428 33.4842 48.7365 34.7159 50.1144 35.5203C52.2074 36.6638 54.5611 37.2109 56.9304 37.1046Z" fill="#0A0A0A"/>
<path d="M87.3893 32.7016C86.7053 32.9097 86.0102 33.0778 85.3076 33.2053C84.7455 33.3177 84.1758 33.3859 83.6036 33.4092C82.0296 33.5359 80.4686 33.0364 79.2442 32.0142C78.759 31.4935 78.3853 30.8747 78.1471 30.1971C77.9089 29.5196 77.8115 28.7984 77.8611 28.08C77.8575 27.2994 78.0133 26.5266 78.3184 25.8114C78.6236 25.0782 79.1222 24.4467 79.7583 23.9883C80.5075 23.4776 81.3921 23.2162 82.2915 23.2398C83.1708 23.2504 84.0458 23.3668 84.8987 23.5864C85.7488 23.8058 86.5818 24.0602 87.3979 24.3495V20.4064C85.5292 20.1481 84.1527 19.9597 83.2685 19.8413C82.6052 19.7416 81.9365 19.6832 81.2663 19.6666C78.897 19.5601 76.5433 20.1072 74.4503 21.2508C73.0733 22.0564 71.9798 23.2877 71.3263 24.7688C70.8371 25.9081 70.5845 27.1394 70.5845 28.3843C70.5845 29.6292 70.8371 30.8605 71.3263 31.9998C71.9795 33.4811 73.073 34.7124 74.4503 35.5176C76.5433 36.661 78.897 37.2081 81.2663 37.1018C82.3322 37.1018 83.3811 37.0542 84.413 36.9591C85.415 36.8671 86.4115 36.7194 87.3979 36.5165L87.3893 32.7016Z" fill="#0A0A0A"/>
<path d="M98.8859 12.9856H92.0443V36.7344H98.8859V12.9856Z" fill="#0A0A0A"/>
<path d="M122.927 33.4089H122.253C121.714 33.3827 121.387 33.1964 121.279 32.844C121.172 32.4892 121.13 32.1167 121.157 31.7461V25.2461C121.2 24.238 120.963 23.2381 120.473 22.3631C119.84 21.4097 118.901 20.7142 117.82 20.3974C116.029 19.8482 114.162 19.6023 112.294 19.6693C111.071 19.6659 109.85 19.7475 108.638 19.9139C107.427 20.0814 106.232 20.3493 105.063 20.7148V24.4132C106.023 23.9228 107.042 23.5645 108.093 23.3474C109.16 23.1165 110.246 22.9983 111.336 22.9949C112.22 22.9333 113.103 23.1174 113.892 23.5278C114.171 23.7024 114.398 23.9519 114.548 24.2491C114.698 24.5463 114.766 24.8801 114.744 25.2141V26.2624H111.234C110.198 26.275 109.168 26.4269 108.17 26.7139C106.959 27.0245 105.836 27.623 104.892 28.4612C104.397 28.9265 104.004 29.4952 103.74 30.1291C103.477 30.763 103.349 31.4475 103.365 32.1364C103.364 32.8474 103.53 33.5481 103.849 34.1792C104.169 34.8104 104.632 35.3534 105.199 35.7621C106.47 36.6662 107.987 37.1333 109.533 37.0959C110.435 37.1083 111.331 36.9512 112.177 36.6327C112.974 36.3216 113.702 35.8504 114.318 35.2466H114.744C115.192 35.9971 115.904 36.5424 116.732 36.7697C117.617 37.0133 118.532 37.1221 119.447 37.0928C120.615 37.0939 121.779 36.9699 122.921 36.723L122.927 33.4089ZM114.739 32.084C114.369 32.4827 113.929 32.805 113.441 33.0333C112.925 33.2777 112.364 33.4048 111.797 33.406C111.27 33.4264 110.753 33.2563 110.337 32.9256C110.157 32.7756 110.012 32.5858 109.914 32.3705C109.816 32.1552 109.766 31.9198 109.769 31.6821C109.758 31.4056 109.813 31.1304 109.929 30.8806C110.045 30.6309 110.219 30.4142 110.436 30.2493C110.873 29.9455 111.375 29.7529 111.899 29.6872C112.378 29.6157 112.863 29.5826 113.347 29.5882H114.73L114.739 32.084Z" fill="#0A0A0A"/>
</g>
</svg>
