<svg width="40" height="32" viewBox="0 0 40 32" fill="none" xmlns="http://www.w3.org/2000/svg">
<path d="M15.9385 22L26.2785 16L15.9385 10V22ZM38.9695 6.34C39.2285 7.28 39.4078 8.54 39.5274 10.14C39.6668 11.74 39.7266 13.12 39.7266 14.32L39.8462 16C39.8462 20.38 39.5274 23.6 38.9695 25.66C38.4715 27.46 37.3159 28.62 35.5228 29.12C34.5865 29.38 32.8731 29.56 30.2432 29.68C27.6532 29.82 25.2824 29.88 23.0908 29.88L19.9231 30C11.5753 30 6.37538 29.68 4.32331 29.12C2.53023 28.62 1.37469 27.46 0.876615 25.66C0.617616 24.72 0.438308 23.46 0.318769 21.86C0.179308 20.26 0.119538 18.88 0.119538 17.68L0 16C0 11.62 0.318769 8.4 0.876615 6.34C1.37469 4.54 2.53023 3.38 4.32331 2.88C5.25969 2.62 6.97308 2.44 9.60292 2.32C12.1929 2.18 14.5638 2.12 16.7553 2.12L19.9231 2C28.2708 2 33.4708 2.32 35.5228 2.88C37.3159 3.38 38.4715 4.54 38.9695 6.34Z" fill="white"/>
</svg>
